<?xml version="1.0" encoding="utf-8" ?>
<svg baseProfile="full" fill="rgb(255,152,150)" height="100%" version="1.1" viewBox="0,0,1467.9,489.3" width="100%" xmlns="http://www.w3.org/2000/svg" xmlns:ev="http://www.w3.org/2001/xml-events" xmlns:xlink="http://www.w3.org/1999/xlink"><defs /><defs><path d="M181.95 62.7c0 34.6 28.1 62.7 62.7 62.7s62.7-28.1 62.7-62.7S279.25         0 244.65 0S181.95 28.1 181.95 62.7z M244.65 24.5 c21.1 0 38.2 17.1 38.2 38.2s-17.1 38.2-38.2         38.2s-38.2-17.1-38.2-38.2S223.55 24.5 244.65 24.5z  M196.25 138.5c-34.3 0-62.2 27.9-62.2         62.2v79.7c0 23 12.9 44 32.8 54.7v104.7c0 27.3 22.2 49.5 49.5 49.5h56.6 c27.3 0 49.5-22.2         49.5-49.5V335c19.9-10.7 32.8-31.7 32.8-54.7v-79.7c0-34.3-27.9-62.2-62.2-62.2h-96.8V138.5z        M330.75 200.6 v79.7c0 15.7-9.9 29.9-24.7 35.3c-4.8 1.8-8 6.4-8 11.5v112.6c0 13.8-11.2 25-25         25h-56.6c-13.8 0-25-11.2-25-25V327.2 c0-5.1-3.2-9.7-8-11.5c-14.8-5.4-24.7-19.6-24.7-35.3v-79.8c0-20.8         16.9-37.7 37.7-37.7h96.8 C313.85 163 330.75 179.9 330.75 200.6z" id="symbol" /><linearGradient id="lin_grad" x1="0" x2="0" y1="0" y2="1"><stop offset="0.5" stop-color="rgb(255,152,150)" stop-opacity="255" /><stop offset="0.5" stop-color="rgb(214,39,40)" stop-opacity="255" /></linearGradient></defs><g><use fill="rgb(214,39,40)" transform="translate(0.0)" xlink:href="#symbol" /><use fill="url(#lin_grad)" transform="translate(244.65)" xlink:href="#symbol" /><use transform="translate(489.3)" xlink:href="#symbol" /><use transform="translate(733.95)" xlink:href="#symbol" /><use transform="translate(978.6)" xlink:href="#symbol" /></g></svg>